<?xml version="1.0" encoding="UTF-8"?>
<svg width="242px" height="88px" viewBox="0 0 242 88" version="1.1" xmlns="http://www.w3.org/2000/svg" xmlns:xlink="http://www.w3.org/1999/xlink">
    <title>Logo/White/Com@1x</title>
    <g id="Wedsly-App-Symbols" stroke="none" stroke-width="1" fill="none" fill-rule="evenodd">
        <g id="Wedsly-app-Updated-210929" transform="translate(-78.000000, -1102.000000)" fill="#FFFFFF">
            <g id="Logo/White/Com" transform="translate(78.000000, 1101.535487)">
                <path d="M235.038218,55.4613118 C235.111439,55.1299579 235.431624,54.9258092 235.762977,54.9996503 C236.094331,55.0728708 236.288552,55.3924349 236.215331,55.7219272 C236.14087,56.053281 235.831854,56.2499836 235.501121,56.1767631 C235.169767,56.1029221 234.963757,55.7914246 235.038218,55.4613118" id="Fill-17"></path>
                <path d="M233.647215,52.8839497 C231.639856,52.43656 230.853666,50.6978831 231.185641,49.2061703 C231.490933,47.8348369 232.451487,47.0343754 233.680102,46.9872164 L233.780005,47.8193241 C232.820692,47.8453856 232.167292,48.393919 231.948251,49.3755703 C231.70501,50.4682933 232.269056,51.6882215 233.83523,52.0363292 C235.402025,52.3856779 236.439523,51.5231651 236.683384,50.4304421 C236.911733,49.4059754 236.435799,48.6235087 235.669466,48.1947344 L236.104446,47.5196164 C237.159317,48.0917292 237.752528,49.219201 237.444753,50.5998421 C237.099128,52.1498831 235.656435,53.3313395 233.647215,52.8839497" id="Fill-18"></path>
                <path d="M238.275186,43.2825067 C238.524011,42.1637221 237.951898,40.9344862 236.385104,40.5851374 C234.818929,40.2370297 233.789498,41.1094708 233.540052,42.2276349 C233.291227,43.3464195 233.853411,44.5731733 235.418965,44.9225221 C236.98576,45.2706297 238.02636,44.4000503 238.275186,43.2825067 M232.777442,42.0582349 C233.112519,40.5497682 234.566381,39.2907477 236.573739,39.7381374 C238.58296,40.1849067 239.371632,41.94344 239.036555,43.4519067 C238.700237,44.9591323 237.24017,46.2156708 235.23095,45.768281 C233.223591,45.3215118 232.441124,43.5654605 232.777442,42.0582349" id="Fill-19"></path>
                <polygon id="Fill-20" points="241.285355 32.7515354 236.610412 31.7109354 240.829278 34.8010892 240.659878 35.5636995 235.532581 36.5558995 240.207525 37.59712 240.024473 38.418679 234.019771 37.0808533 234.270458 35.9546226 239.628586 34.9245713 235.21674 31.7022482 235.463084 30.5927713 241.467786 31.9299764"></polygon>
                <path d="M193.855155,82.5193938 C190.637796,82.8581938 188.944416,81.7555426 188.750196,79.9014503 C188.104863,73.7614759 200.064627,68.4635374 212.732396,66.1453015 C208.601022,74.6637015 202.237663,81.6395067 193.855155,82.5193938 L193.855155,82.5193938 Z M159.226196,71.7994144 C157.959729,71.9408913 156.984904,71.1627682 156.788201,69.4098195 C156.318473,65.2213579 159.995011,61.0608195 165.122309,57.526999 L165.22035,58.4031631 C165.984822,65.2219785 162.733334,71.4053887 159.226196,71.7994144 L159.226196,71.7994144 Z M138.833663,41.24164 C136.308796,48.6263631 131.483688,61.8904451 129.145596,62.1535426 C128.561073,62.2186964 128.289909,61.5584708 128.169529,60.4868451 C127.536606,54.8376964 132.151981,37.9467169 137.704329,37.3237221 C138.288852,37.2585682 138.992514,37.3770862 139.631642,37.7984144 L138.833663,41.24164 Z M111.163755,39.0183426 C111.942498,38.9308503 112.289986,39.3850656 112.377478,40.1644297 C112.726206,43.2812656 107.615663,52.2383682 102.410801,54.2029118 C103.89817,47.2308297 108.143719,39.3565221 111.163755,39.0183426 L111.163755,39.0183426 Z M162.609232,4.34967077 C163.486637,4.25162974 164.072401,5.07256821 164.202709,6.24161436 C164.673057,10.4306964 160.81657,18.2609477 152.615252,21.6458451 C155.885355,12.1067015 159.785278,4.66613231 162.609232,4.34967077 L162.609232,4.34967077 Z M196.792042,11.1107785 C197.376565,11.0450041 197.820852,11.4886708 197.930063,12.4622554 C198.595873,18.4042862 191.848416,35.6328246 186.595775,44.2107938 C187.87155,31.8377682 193.675206,11.4601272 196.792042,11.1107785 L196.792042,11.1107785 Z M238.780283,65.4782503 C238.216237,60.1170195 232.014832,58.3051221 223.882391,58.7655426 C224.169068,57.7497631 224.447057,56.6365631 224.627006,55.5339118 C227.050109,42.958599 229.396888,28.7159682 232.035309,25.679799 C233.656088,24.227799 227.849329,21.4869938 224.43775,21.8456503 C223.266842,21.9697528 222.333591,22.46244 222.153642,23.5650913 C217.888237,36.4314246 212.626288,52.9513374 209.897893,53.2380144 C209.41017,53.2888964 209.132801,52.5300092 209.020488,51.4571426 C208.46637,46.1939528 212.455647,30.6935426 215.27836,27.5388554 C216.987252,25.9795067 211.277293,23.2287733 207.865714,23.5874297 C206.694806,23.7115323 205.761555,24.2042195 205.581606,25.3068708 C203.955242,28.9145323 202.349355,34.8832451 201.421068,40.5348759 C201.349088,40.6205067 201.272145,40.683799 201.205129,40.7973528 C197.179242,51.5061631 192.387642,55.397399 189.855329,55.6815938 C187.615278,55.9329015 186.702504,53.0760605 186.430098,50.6411682 C186.363704,50.0566451 186.29855,49.4721221 186.319027,48.7796297 C194.041309,41.1082297 203.142991,19.3741477 202.423196,12.9450144 C201.876524,8.07460923 196.63257,4.42102974 193.224093,4.80326564 C183.699842,5.87178872 178.121432,34.7386656 178.163627,48.0331528 C176.564565,48.551281 174.663314,49.1370451 172.412714,49.78424 C171.39197,45.9538144 170.083929,41.0908554 169.724032,37.8759785 C169.243134,33.5900964 170.031806,31.8247374 170.950165,30.3410913 C171.318129,30.1021938 171.382663,29.7987631 171.349775,29.5071221 C171.175411,27.9483938 166.777837,25.679799 163.466781,26.0514862 C162.200314,26.1935836 161.063534,26.6167733 160.393381,27.6772297 C159.215647,29.4872656 158.731027,31.3171579 158.743437,33.1898656 C157.417401,38.072681 156.046688,42.5645733 154.848478,45.9544349 C154.848478,45.9544349 154.847857,45.9556759 154.847857,45.9562964 C150.91877,56.6533169 148.07496,60.3261323 146.808493,60.4682297 C146.224591,60.5333836 145.834288,59.6894862 145.670473,58.2281785 C144.894832,51.3125631 147.456929,38.1043272 151.082586,26.4535785 C162.315729,23.7140144 170.675898,16.4645631 169.791047,8.57474256 C169.212109,3.4120759 164.705324,0.169275897 160.224601,0.671891282 C153.990309,1.37120923 148.112191,11.3993169 143.82755,23.3218503 C129.895796,23.1083938 112.434565,10.7651528 98.7001344,12.3052656 C96.0741241,12.6000092 94.0704882,13.3204246 92.5396831,14.2952503 C89.1690574,7.18665538 82.4091908,2.99074769 77.6585446,3.48964 C72.2966933,4.05306564 67.6676677,10.6497374 67.995919,13.7690554 C68.1293292,15.0361426 69.2164677,16.0060041 70.2893344,15.8943118 C70.6790164,15.8527374 71.0376728,15.5201426 71.2802933,15.0013938 C71.8077292,13.4681067 76.8115446,9.49310154 80.9050677,9.06184513 C83.4404831,8.79564513 85.6501292,10.1409169 86.1322677,14.7221631 C88.1613446,34.0225938 71.5210523,74.5054708 63.0411241,75.3971477 C60.7017908,75.6434913 59.3316985,71.05604 58.7477959,65.4999682 C57.3646728,52.3395118 60.6720062,31.294199 62.5143087,27.2571426 C63.2427908,26.6887528 63.3774421,26.0825118 63.3160113,25.4967477 C63.0696677,23.1580349 58.8625908,20.6437169 56.2303754,20.9198451 C55.3529703,21.0123015 54.7119805,21.4739631 54.3936574,22.197481 C52.9050472,24.9165682 42.8812831,52.3835682 34.9728472,69.9701426 C38.9050369,54.8712041 42.1602472,35.2114964 41.5043651,28.97224 L41.4429344,28.3870964 C40.7156933,21.4671374 34.1035087,12.009281 24.8423549,12.9828656 C12.2682831,14.3051785 -1.02372205,34.1324246 0.0621753846,44.4652041 C0.626842051,49.8270554 7.01378051,53.3937631 10.327319,53.0456554 C11.4982267,52.9221733 12.314201,52.2451938 12.1814113,50.9781067 C12.0678574,49.90524 11.2984215,50.0851887 11.0626267,47.8426554 C9.96618051,37.4124554 21.9389754,19.1036041 28.1769908,18.4483426 C30.6149856,18.1914503 31.8857959,20.9161221 32.3164318,25.0108862 C33.7814626,38.9507067 25.2450677,69.3167426 22.5346677,79.161799 C22.1487087,80.1881272 21.9284267,80.9010964 22.0109549,81.6804605 C22.3379651,84.800399 28.4233344,88.3007118 30.9562677,88.0332708 C31.4439908,87.9823887 31.7281856,87.8533221 31.9788728,87.4338554 C34.0724831,84.8475579 43.9733856,59.9563067 50.1307344,45.4127272 C49.1608728,52.1173682 48.7289959,59.2600913 49.1999651,63.7439169 L49.3234472,64.9129631 C49.3234472,64.9129631 61.8950369,82.3183477 67.3549292,81.7443733 C82.6288523,80.1391067 95.029801,39.1381015 94.6109549,23.0637169 C95.6372831,22.6051579 96.9868985,22.2626349 98.8068626,22.0584862 C110.594124,20.7367938 127.660088,27.7976092 142.42457,27.5233426 C141.604252,29.8837733 140.989324,32.3199067 140.363847,34.6586195 C137.915924,33.0589374 134.408165,31.6770554 131.972652,31.950081 C126.479873,32.5662503 121.99915,42.6408964 120.382093,51.4726554 C117.078483,58.6122759 111.540406,64.2260554 106.264806,64.8174041 C103.537652,65.1233169 102.235816,63.1984862 101.908186,60.2758708 C101.831863,59.5939272 101.831242,58.7059733 101.84117,57.9160605 C112.608309,54.5392297 118.302755,45.5163528 117.767873,40.7433682 C117.167216,35.3858605 109.52436,34.0728554 106.601745,34.4011067 C98.02936,35.362281 92.1264215,52.1998964 93.1415805,61.2587631 C93.2842985,62.5252297 93.6324062,63.867399 93.9134985,64.6244246 C95.3034472,68.2171938 100.241488,70.9176656 105.306734,70.3498964 C110.343437,69.7852297 115.540232,66.5889682 119.851555,60.1858964 C120.004822,61.5311682 120.241857,62.7666092 120.617888,63.504399 C121.744739,65.6457887 125.925755,67.741881 128.555488,67.4465169 C132.159427,67.0431836 135.066529,62.1802246 137.344432,56.1047836 C137.333883,56.8953169 137.410827,57.57664 137.48777,58.2585836 C137.59636,59.2334092 137.81416,60.2932451 138.085324,60.9534708 C139.311457,63.9716451 144.238329,65.6886041 146.673842,65.4149579 C150.374581,65.0004554 154.589104,57.7224605 158.160775,47.3605169 L158.162016,47.3592759 C159.058037,44.7928349 159.910622,41.8373323 160.773134,38.9786297 C161.502237,42.8419426 163.207406,48.3713323 164.34915,53.2740041 C156.733596,58.3690349 151.046596,64.8267118 151.724196,70.8649221 C152.139319,74.566281 155.019739,76.5115887 159.306242,76.0319323 C166.319898,75.2451221 175.427165,68.5026297 174.345611,58.8598605 C174.160078,57.2030913 173.790252,55.666081 173.258473,53.5563374 C174.627945,52.9829836 176.501273,52.2687733 178.349781,51.5849682 C178.441616,52.3953579 178.543381,53.2361528 178.671827,53.582399 C180.940422,59.7391272 187.674227,60.8579118 190.401381,60.551999 C193.875632,60.1623169 197.580714,56.4510297 200.693827,50.8806862 C200.703755,50.9992041 200.706857,51.1301323 200.718647,51.2443067 C200.821652,52.2197528 200.923416,53.1945785 201.16976,53.6618246 C202.54916,56.4733682 206.423642,58.6284092 209.054616,58.352281 C212.759698,57.96384 215.515396,53.2392554 218.779914,44.9113528 C218.275437,49.4975631 217.162237,54.8401785 215.334206,59.9606503 C199.510509,63.1991067 181.902216,71.9495785 182.660483,79.1636605 C183.223909,84.5242708 191.632478,88.5681528 198.94336,87.7993374 C205.279416,87.1341477 216.080063,83.9298195 222.264714,64.9470913 C232.08495,64.6045682 234.161806,68.4269272 233.971309,71.3054862 C233.817422,71.7175067 233.654847,72.0302451 233.695181,72.4186862 C233.766539,73.1018708 234.186627,73.3519374 234.57755,73.3116041 C236.33236,73.1279323 239.118463,68.6956092 238.780283,65.4782503 L238.780283,65.4782503 Z" id="Fill-21"></path>
            </g>
        </g>
    </g>
</svg>